<?xml version="1.0" encoding="UTF-8" standalone="no"?>
<!DOCTYPE svg PUBLIC "-//W3C//DTD SVG 20010904//EN"
              "http://www.w3.org/TR/2001/REC-SVG-20010904/DTD/svg10.dtd">

<svg xmlns="http://www.w3.org/2000/svg"
     width="6.66667in" height="1.55333in"
     viewBox="0 0 2000 466">
  <path d="m118.814 79.9275h246.416v314.393h-246.416z" fill="#fff"/>
  <path clip-rule="evenodd" d="m248.272 54.4443c40.334 0 76.187 2.2506 98.595 7.877 43.695 10.1274 78.427 43.8857 87.39 87.7717 4.482 21.38 7.843 58.514 7.843 99.024 0 40.509-2.241 76.518-7.843 99.024-8.963 43.885-43.695 78.769-87.39 87.771-21.288 4.501-58.261 7.877-98.595 7.877s-76.187-2.251-98.594-7.877c-43.696-9.002-78.4278-43.886-87.3909-87.771-4.4816-21.381-7.8428-58.515-7.8428-99.024 0-40.51 2.2408-76.519 7.8428-99.024 8.9631-43.886 43.6949-78.7696 87.3909-87.7717 21.287-4.5011 58.26-7.877 98.594-7.877zm24.65 283.5647c10.083 1.125 17.926 7.877 21.287 16.879 2.241 2.25 4.482 4.501 7.843 4.501h2.241c15.685-1.125 28.01-3.376 34.732-5.627 4.482-1.125 7.843-5.626 7.843-11.252v-1.126c-1.121-15.753-11.204-52.887-25.769-95.648-16.806-48.386-33.612-87.771-41.455-95.648-.56-.563-1.4-1.125-2.241-1.688-.84-.562-1.68-1.125-2.24-1.688 0 0-1.121-1.125-2.241-1.125-5.602-2.251-14.565-3.376-25.769-3.376s-20.167 1.125-25.769 3.376c-.56 0-.84.281-1.121.563-.28.281-.56.562-1.12.562-2.241 1.126-3.361 2.251-4.481 3.376-7.843 7.877-24.649 47.262-41.455 95.648-14.565 42.761-24.649 79.895-25.769 95.648v1.126c0 4.501 3.361 9.002 7.843 11.252 7.842 2.251 19.046 4.502 34.732 5.627h2.241c3.361 0 6.722-1.125 7.842-4.501 4.482-7.877 11.204-14.629 21.288-16.879 5.602-1.126 15.685-2.251 25.769-2.251 10.083 0 20.167 1.125 25.769 2.251z" fill="#00b388" fill-rule="evenodd"/>
  <svg width="100%" viewBox="-50 0 184.56 14.94" xmlns="http://www.w3.org/2000/svg"><g id="svgGroup" stroke-linecap="round" fill-rule="nonzero" font-size="9pt" stroke="#000" stroke-width="0.25mm" fill="#000" style="stroke:#000;stroke-width:0.25mm;fill:#000"><path d="M 56.7 14.7 L 48.3 14.7 L 48.3 0.7 L 56.7 0.7 L 56.7 2.34 L 50.2 2.34 L 50.2 6.6 L 55.8 6.6 L 55.8 8.2 L 50.2 8.2 L 50.2 13.06 L 56.7 13.06 L 56.7 14.7 Z M 60.8 14.7 L 59 14.7 L 59 4.3 L 60.74 4.3 L 60.74 6.04 Q 61.3 5.2 62.17 4.63 A 3.463 3.463 0 0 1 63.591 4.105 A 4.526 4.526 0 0 1 64.24 4.06 A 4.645 4.645 0 0 1 65.253 4.164 Q 65.922 4.313 66.409 4.678 A 2.652 2.652 0 0 1 66.87 5.12 A 3.681 3.681 0 0 1 67.591 6.596 Q 67.74 7.2 67.74 7.92 L 67.74 14.7 L 65.94 14.7 L 65.94 8.12 A 3.853 3.853 0 0 0 65.872 7.372 Q 65.784 6.929 65.584 6.579 A 2.193 2.193 0 0 0 65.41 6.32 Q 64.88 5.64 63.94 5.64 A 2.624 2.624 0 0 0 62.57 6.033 A 3.471 3.471 0 0 0 62.2 6.29 Q 61.38 6.94 60.8 7.82 L 60.8 14.7 Z M 9.78 1.18 L 9.2 2.78 Q 8.58 2.48 7.93 2.3 A 4.603 4.603 0 0 0 7.317 2.177 Q 7.001 2.134 6.643 2.124 A 8.141 8.141 0 0 0 6.4 2.12 A 4.235 4.235 0 0 0 4.819 2.411 A 3.996 3.996 0 0 0 4.11 2.78 Q 3.1 3.44 2.52 4.68 Q 1.94 5.92 1.94 7.68 A 8.373 8.373 0 0 0 2.063 9.151 A 6.186 6.186 0 0 0 2.51 10.62 A 5.135 5.135 0 0 0 3.227 11.786 A 4.285 4.285 0 0 0 4.09 12.58 A 3.941 3.941 0 0 0 6.319 13.279 A 4.779 4.779 0 0 0 6.4 13.28 A 6.743 6.743 0 0 0 7.194 13.236 Q 7.69 13.177 8.1 13.04 Q 8.82 12.8 9.5 12.42 L 10.08 14 A 7.512 7.512 0 0 1 9.181 14.409 A 9.579 9.579 0 0 1 8.39 14.67 A 6.718 6.718 0 0 1 7.397 14.868 Q 6.83 14.94 6.18 14.94 A 6.477 6.477 0 0 1 4.315 14.68 A 5.592 5.592 0 0 1 2.96 14.07 A 5.72 5.72 0 0 1 0.985 11.981 A 6.983 6.983 0 0 1 0.78 11.59 Q 0.011 10.003 0 7.823 A 12.563 12.563 0 0 1 0 7.76 Q 0 5.62 0.79 3.97 A 6.327 6.327 0 0 1 2.186 2.044 A 5.972 5.972 0 0 1 3.03 1.39 A 5.874 5.874 0 0 1 5.566 0.508 A 7.458 7.458 0 0 1 6.42 0.46 A 9.128 9.128 0 0 1 7.432 0.514 A 7.04 7.04 0 0 1 8.24 0.65 A 7.645 7.645 0 0 1 9.735 1.159 A 7.125 7.125 0 0 1 9.78 1.18 Z M 106.7 13.86 L 107.46 12.36 A 3.711 3.711 0 0 0 108.089 12.785 Q 108.397 12.953 108.764 13.088 A 6.084 6.084 0 0 0 108.77 13.09 Q 109.56 13.38 110.46 13.38 Q 111.58 13.38 112.15 13.01 A 1.49 1.49 0 0 0 112.457 12.752 A 1.01 1.01 0 0 0 112.72 12.06 A 1.425 1.425 0 0 0 112.657 11.631 A 1.242 1.242 0 0 0 112.51 11.32 Q 112.3 11 111.74 10.69 A 5.693 5.693 0 0 0 111.341 10.491 Q 110.849 10.268 110.12 10.02 A 9.323 9.323 0 0 1 109.241 9.672 Q 108.421 9.294 107.93 8.83 Q 107.2 8.14 107.2 6.92 A 2.424 2.424 0 0 1 107.99 5.117 A 3.493 3.493 0 0 1 108.25 4.89 Q 109.131 4.194 110.582 4.082 A 7.505 7.505 0 0 1 111.16 4.06 Q 112.16 4.06 112.94 4.27 A 7.754 7.754 0 0 1 113.767 4.541 A 6.222 6.222 0 0 1 114.34 4.8 L 113.84 6.28 A 4.906 4.906 0 0 0 113.107 5.927 A 6.038 6.038 0 0 0 112.61 5.76 A 5.005 5.005 0 0 0 111.713 5.591 A 6.367 6.367 0 0 0 111.08 5.56 Q 110.413 5.56 109.952 5.733 A 1.702 1.702 0 0 0 109.5 5.98 A 1.864 1.864 0 0 0 109.229 6.235 Q 109.088 6.399 109.021 6.573 A 0.906 0.906 0 0 0 108.96 6.9 A 0.984 0.984 0 0 0 109.259 7.61 A 1.416 1.416 0 0 0 109.38 7.72 A 1.976 1.976 0 0 0 109.64 7.894 Q 110.095 8.154 110.98 8.447 A 16.851 16.851 0 0 0 111.02 8.46 Q 113 9.12 113.78 9.92 A 2.719 2.719 0 0 1 114.557 11.769 A 3.579 3.579 0 0 1 114.56 11.92 Q 114.56 13.27 113.51 14.071 A 3.323 3.323 0 0 1 113.43 14.13 A 4.01 4.01 0 0 1 112.155 14.725 Q 111.622 14.873 110.992 14.919 A 8.084 8.084 0 0 1 110.4 14.94 Q 109.22 14.94 108.27 14.64 A 6.177 6.177 0 0 1 107.502 14.343 Q 107.106 14.157 106.79 13.927 A 3.645 3.645 0 0 1 106.7 13.86 Z M 39.64 10.24 L 32.36 10.24 A 4.818 4.818 0 0 0 32.588 11.245 Q 32.826 11.924 33.268 12.405 A 2.996 2.996 0 0 0 33.38 12.52 A 2.829 2.829 0 0 0 34.905 13.282 A 4.004 4.004 0 0 0 35.6 13.34 Q 36.5 13.34 37.22 13.15 Q 37.94 12.96 38.6 12.66 L 39.02 14.2 A 8.154 8.154 0 0 1 38.153 14.525 A 10.373 10.373 0 0 1 37.4 14.73 Q 36.5 14.94 35.38 14.94 A 5.664 5.664 0 0 1 33.831 14.739 A 4.222 4.222 0 0 1 31.83 13.51 A 4.704 4.704 0 0 1 30.789 11.602 Q 30.587 10.902 30.537 10.07 A 9.425 9.425 0 0 1 30.52 9.5 A 7.072 7.072 0 0 1 30.687 7.936 A 5.768 5.768 0 0 1 31.11 6.71 A 4.928 4.928 0 0 1 32.113 5.294 A 4.577 4.577 0 0 1 32.76 4.77 A 4.21 4.21 0 0 1 34.812 4.076 A 5.241 5.241 0 0 1 35.22 4.06 A 5.711 5.711 0 0 1 36.314 4.159 Q 36.983 4.29 37.517 4.592 A 3.443 3.443 0 0 1 37.71 4.71 Q 38.7 5.36 39.2 6.46 A 5.637 5.637 0 0 1 39.685 8.433 A 6.687 6.687 0 0 1 39.7 8.88 A 15.041 15.041 0 0 1 39.642 10.219 A 14.117 14.117 0 0 1 39.64 10.24 Z M 32.34 8.78 L 38.04 8.78 Q 38.04 7.676 37.639 6.942 A 2.484 2.484 0 0 0 37.28 6.44 A 2.498 2.498 0 0 0 35.888 5.685 A 3.679 3.679 0 0 0 35.18 5.62 A 2.716 2.716 0 0 0 34.158 5.807 A 2.505 2.505 0 0 0 33.26 6.43 Q 32.628 7.104 32.411 8.284 A 6.404 6.404 0 0 0 32.34 8.78 Z M 105.14 10.24 L 97.86 10.24 A 4.818 4.818 0 0 0 98.088 11.245 Q 98.326 11.924 98.768 12.405 A 2.996 2.996 0 0 0 98.88 12.52 A 2.829 2.829 0 0 0 100.405 13.282 A 4.004 4.004 0 0 0 101.1 13.34 Q 102 13.34 102.72 13.15 Q 103.44 12.96 104.1 12.66 L 104.52 14.2 A 8.154 8.154 0 0 1 103.653 14.525 A 10.373 10.373 0 0 1 102.9 14.73 Q 102 14.94 100.88 14.94 A 5.664 5.664 0 0 1 99.331 14.739 A 4.222 4.222 0 0 1 97.33 13.51 A 4.704 4.704 0 0 1 96.289 11.602 Q 96.087 10.902 96.037 10.07 A 9.425 9.425 0 0 1 96.02 9.5 A 7.072 7.072 0 0 1 96.187 7.936 A 5.768 5.768 0 0 1 96.61 6.71 A 4.928 4.928 0 0 1 97.613 5.294 A 4.577 4.577 0 0 1 98.26 4.77 A 4.21 4.21 0 0 1 100.312 4.076 A 5.241 5.241 0 0 1 100.72 4.06 A 5.711 5.711 0 0 1 101.814 4.159 Q 102.483 4.29 103.017 4.592 A 3.443 3.443 0 0 1 103.21 4.71 Q 104.2 5.36 104.7 6.46 A 5.637 5.637 0 0 1 105.185 8.433 A 6.687 6.687 0 0 1 105.2 8.88 A 15.041 15.041 0 0 1 105.142 10.219 A 14.117 14.117 0 0 1 105.14 10.24 Z M 97.84 8.78 L 103.54 8.78 Q 103.54 7.676 103.139 6.942 A 2.484 2.484 0 0 0 102.78 6.44 A 2.498 2.498 0 0 0 101.388 5.685 A 3.679 3.679 0 0 0 100.68 5.62 A 2.716 2.716 0 0 0 99.658 5.807 A 2.505 2.505 0 0 0 98.76 6.43 Q 98.128 7.104 97.911 8.284 A 6.404 6.404 0 0 0 97.84 8.78 Z M 71.24 11.12 L 71.24 6.24 L 69.44 6.24 L 69.44 4.68 L 71.28 4.68 L 71.66 1.4 L 73.04 1.4 L 73.04 4.68 L 75.92 4.68 L 75.92 6.24 L 73.04 6.24 L 73.04 11.26 Q 73.04 12.288 73.425 12.766 A 1.111 1.111 0 0 0 73.53 12.88 Q 74.02 13.34 74.7 13.34 Q 75.2 13.34 75.65 13.18 A 5.147 5.147 0 0 0 76.286 12.906 A 4.554 4.554 0 0 0 76.48 12.8 L 76.98 14.24 A 3.709 3.709 0 0 1 76.656 14.411 Q 76.496 14.487 76.307 14.562 A 8.673 8.673 0 0 1 75.9 14.71 Q 75.22 14.94 74.48 14.94 A 3.665 3.665 0 0 1 73.444 14.801 A 2.787 2.787 0 0 1 72.11 13.95 Q 71.24 12.96 71.24 11.12 Z M 84.18 11.12 L 84.18 6.24 L 82.38 6.24 L 82.38 4.68 L 84.22 4.68 L 84.6 1.4 L 85.98 1.4 L 85.98 4.68 L 88.86 4.68 L 88.86 6.24 L 85.98 6.24 L 85.98 11.26 Q 85.98 12.288 86.365 12.766 A 1.111 1.111 0 0 0 86.47 12.88 Q 86.96 13.34 87.64 13.34 Q 88.14 13.34 88.59 13.18 A 5.147 5.147 0 0 0 89.226 12.906 A 4.554 4.554 0 0 0 89.42 12.8 L 89.92 14.24 A 3.709 3.709 0 0 1 89.596 14.411 Q 89.436 14.487 89.247 14.562 A 8.673 8.673 0 0 1 88.84 14.71 Q 88.16 14.94 87.42 14.94 A 3.665 3.665 0 0 1 86.384 14.801 A 2.787 2.787 0 0 1 85.05 13.95 Q 84.18 12.96 84.18 11.12 Z M 25.64 14.7 L 23.84 14.7 L 23.84 4.3 L 25.58 4.3 L 25.58 6.56 Q 25.84 5.9 26.28 5.33 Q 26.72 4.76 27.38 4.41 A 2.963 2.963 0 0 1 28.316 4.105 A 3.892 3.892 0 0 1 28.92 4.06 Q 29.22 4.06 29.52 4.09 A 3.794 3.794 0 0 1 29.731 4.117 Q 29.831 4.133 29.917 4.153 A 1.763 1.763 0 0 1 30.02 4.18 L 29.48 6.04 Q 29.117 5.887 28.627 5.88 A 3.318 3.318 0 0 0 28.58 5.88 A 2.592 2.592 0 0 0 27.254 6.249 A 3.122 3.122 0 0 0 27.17 6.3 A 2.68 2.68 0 0 0 26.476 6.94 Q 26.255 7.224 26.076 7.589 A 4.585 4.585 0 0 0 26.07 7.6 A 3.864 3.864 0 0 0 25.776 8.462 Q 25.64 9.075 25.64 9.84 L 25.64 14.7 Z M 14.532 14.672 A 4.912 4.912 0 0 1 13.6 14.25 Q 12.42 13.56 11.75 12.33 A 5.49 5.49 0 0 1 11.133 10.371 A 6.964 6.964 0 0 1 11.08 9.5 A 7.001 7.001 0 0 1 11.21 8.118 A 5.205 5.205 0 0 1 11.76 6.6 Q 12.44 5.38 13.62 4.72 A 5.234 5.234 0 0 1 15.944 4.068 A 6.265 6.265 0 0 1 16.26 4.06 A 5.548 5.548 0 0 1 17.962 4.315 A 4.97 4.97 0 0 1 18.89 4.72 Q 20.06 5.38 20.75 6.59 A 5.159 5.159 0 0 1 21.343 8.278 A 6.908 6.908 0 0 1 21.44 9.46 A 6.837 6.837 0 0 1 21.291 10.922 A 5.251 5.251 0 0 1 20.76 12.35 Q 20.08 13.58 18.91 14.26 A 5.051 5.051 0 0 1 16.715 14.924 A 6.145 6.145 0 0 1 16.26 14.94 A 5.443 5.443 0 0 1 14.532 14.672 Z M 16.26 13.34 Q 17.84 13.34 18.72 12.27 A 3.76 3.76 0 0 0 19.484 10.652 A 5.421 5.421 0 0 0 19.6 9.5 Q 19.6 8.46 19.16 7.59 Q 18.72 6.72 17.97 6.19 Q 17.22 5.66 16.26 5.66 A 3.85 3.85 0 0 0 15.215 5.794 A 2.807 2.807 0 0 0 13.8 6.7 A 3.576 3.576 0 0 0 13.065 8.175 Q 12.934 8.706 12.921 9.33 A 6.574 6.574 0 0 0 12.92 9.46 Q 12.92 10.5 13.36 11.39 A 3.887 3.887 0 0 0 14.066 12.398 A 3.525 3.525 0 0 0 14.55 12.81 Q 15.3 13.34 16.26 13.34 Z M 80.58 14.7 L 78.78 14.7 L 78.78 4.3 L 80.58 4.3 L 80.58 14.7 Z M 93.52 14.7 L 91.72 14.7 L 91.72 4.3 L 93.52 4.3 L 93.52 14.7 Z M 78.808 2.158 A 1.493 1.493 0 0 1 78.79 2.14 A 1.329 1.329 0 0 1 78.519 1.744 A 1.198 1.198 0 0 1 78.42 1.26 A 1.597 1.597 0 0 1 78.466 0.867 A 1.118 1.118 0 0 1 78.76 0.34 A 1.132 1.132 0 0 1 79.349 0.032 A 1.653 1.653 0 0 1 79.68 0 A 1.212 1.212 0 0 1 80.559 0.359 A 1.481 1.481 0 0 1 80.57 0.37 Q 80.94 0.74 80.94 1.26 A 1.502 1.502 0 0 1 80.885 1.677 A 1.155 1.155 0 0 1 80.6 2.17 A 1.129 1.129 0 0 1 79.979 2.494 A 1.635 1.635 0 0 1 79.68 2.52 A 1.195 1.195 0 0 1 78.808 2.158 Z M 91.748 2.158 A 1.493 1.493 0 0 1 91.73 2.14 A 1.329 1.329 0 0 1 91.459 1.744 A 1.198 1.198 0 0 1 91.36 1.26 A 1.597 1.597 0 0 1 91.406 0.867 A 1.118 1.118 0 0 1 91.7 0.34 A 1.132 1.132 0 0 1 92.289 0.032 A 1.653 1.653 0 0 1 92.62 0 A 1.212 1.212 0 0 1 93.499 0.359 A 1.481 1.481 0 0 1 93.51 0.37 Q 93.88 0.74 93.88 1.26 A 1.502 1.502 0 0 1 93.825 1.677 A 1.155 1.155 0 0 1 93.54 2.17 A 1.129 1.129 0 0 1 92.919 2.494 A 1.635 1.635 0 0 1 92.62 2.52 A 1.195 1.195 0 0 1 91.748 2.158 Z" vector-effect="non-scaling-stroke"/></g></svg></svg>
