<?xml version="1.0" standalone="no"?>
<!DOCTYPE svg PUBLIC "-//W3C//DTD SVG 20010904//EN"
 "http://www.w3.org/TR/2001/REC-SVG-20010904/DTD/svg10.dtd">
<svg version="1.0" xmlns="http://www.w3.org/2000/svg"
 width="466.000000pt" height="466.000000pt" viewBox="0 0 466.000000 466.000000"
 preserveAspectRatio="xMidYMid meet">
<metadata>
Created by potrace 1.14, written by Peter Selinger 2001-2017
</metadata>
<g transform="translate(0.000000,466.000000) scale(0.100000,-0.100000)"
fill="#000000" stroke="none">
<path d="M2257 4624 c-1 -1 -44 -4 -96 -8 -273 -19 -654 -133 -926 -276 -144
-76 -320 -193 -406 -270 -111 -100 -225 -220 -310 -327 -74 -92 -188 -283
-256 -428 -60 -129 -136 -335 -149 -407 l-6 -38 379 0 379 0 12 77 c7 42 28
124 48 182 116 349 344 558 677 622 44 9 268 13 780 13 l717 1 0 -137 c0 -76
0 -320 0 -543 0 -223 0 -430 0 -460 l0 -55 -502 0 c-277 0 -712 0 -968 0
l-465 0 0 -1107 -1 -1108 36 -23 c104 -66 396 -189 517 -217 10 -3 36 -9 58
-14 22 -5 51 -12 65 -15 14 -2 48 -9 75 -14 28 -6 78 -13 112 -17 35 -4 75 -8
90 -11 35 -4 334 -5 388 0 141 13 191 19 280 37 55 11 114 23 130 26 79 14
311 100 438 162 117 58 287 157 307 180 3 4 23 19 45 35 99 73 309 276 420
406 143 169 263 375 356 612 36 93 83 250 95 315 3 14 6 30 7 36 1 7 -133 11
-423 11 l-424 0 -2 -24 c-15 -218 -71 -395 -174 -545 -126 -184 -317 -301
-570 -350 -61 -11 -200 -14 -764 -12 l-689 2 0 608 c0 334 2 610 6 613 3 3
430 6 949 5 l944 0 0 1094 0 1094 -126 60 c-236 112 -493 182 -755 207 -65 6
-293 12 -298 8z"/>
<path d="M3735 3157 l0 -992 446 -2 447 -2 4 34 c5 48 2 247 -6 335 -53 586
-341 1145 -792 1535 -38 33 -76 66 -84 72 -14 10 -15 -95 -15 -980z"/>
<path d="M1600 3455 c-214 -58 -380 -264 -428 -532 l-9 -53 821 0 821 0 -2
287 c0 159 -2 293 -2 300 -1 17 -1137 15 -1201 -2z"/>
<path d="M113 2572 l-63 -3 -2 -47 c-5 -146 -4 -327 3 -388 14 -122 20 -169
24 -184 2 -8 7 -31 10 -50 40 -239 183 -590 334 -823 114 -174 327 -420 423
-489 l28 -19 -2 1000 -2 1001 -345 2 c-190 2 -374 2 -408 0z"/>
<path d="M1841 1860 c-4 -3 -6 -144 -6 -315 l0 -310 562 -3 563 -2 71 25 c101
35 154 68 230 144 74 74 128 174 153 281 18 80 27 163 18 176 -7 9 -1577 14
-1591 4z"/>
</g>
</svg>
